<svg width="27" height="28" viewBox="0 0 27 28" fill="none" xmlns="http://www.w3.org/2000/svg">
<path d="M21.9386 11.3733C21.9386 13.8831 21.1528 16.2015 19.8291 18.0825L26.5056 25.0104C27.1648 25.6939 27.1648 26.8039 26.5056 27.4874C25.8464 28.1709 24.7758 28.1709 24.1166 27.4874L17.4401 20.5595C15.626 21.9374 13.3899 22.7467 10.9693 22.7467C4.90981 22.7467 0 17.656 0 11.3733C0 5.09066 4.90981 0 10.9693 0C17.0288 0 21.9386 5.09066 21.9386 11.3733ZM10.9693 19.2472C11.9666 19.2472 12.9541 19.0435 13.8754 18.6478C14.7968 18.2521 15.634 17.6721 16.3391 16.941C17.0443 16.2098 17.6037 15.3418 17.9853 14.3865C18.367 13.4312 18.5634 12.4073 18.5634 11.3733C18.5634 10.3393 18.367 9.31544 17.9853 8.36014C17.6037 7.40484 17.0443 6.53684 16.3391 5.80568C15.634 5.07453 14.7968 4.49455 13.8754 4.09885C12.9541 3.70315 11.9666 3.49949 10.9693 3.49949C9.97201 3.49949 8.9845 3.70315 8.06314 4.09885C7.14178 4.49455 6.30461 5.07453 5.59943 5.80568C4.89425 6.53684 4.33487 7.40484 3.95323 8.36014C3.57159 9.31544 3.37516 10.3393 3.37516 11.3733C3.37516 12.4073 3.57159 13.4312 3.95323 14.3865C4.33487 15.3418 4.89425 16.2098 5.59943 16.941C6.30461 17.6721 7.14178 18.2521 8.06314 18.6478C8.9845 19.0435 9.97201 19.2472 10.9693 19.2472Z" fill="white"/>
</svg>
