<svg width="35" height="40" viewBox="0 0 35 40" fill="none" xmlns="http://www.w3.org/2000/svg">
<path d="M12.5 8.75C12.5 5.99219 14.7422 3.75 17.5 3.75C20.2578 3.75 22.5 5.99219 22.5 8.75V12.5H12.5V8.75ZM8.75 12.5H3.75C1.67969 12.5 0 14.1797 0 16.25V32.5C0 36.6406 3.35938 40 7.5 40H27.5C31.6406 40 35 36.6406 35 32.5V16.25C35 14.1797 33.3203 12.5 31.25 12.5H26.25V8.75C26.25 3.91406 22.3359 0 17.5 0C12.6641 0 8.75 3.91406 8.75 8.75V12.5ZM10.625 16.25C11.1223 16.25 11.5992 16.4475 11.9508 16.7992C12.3025 17.1508 12.5 17.6277 12.5 18.125C12.5 18.6223 12.3025 19.0992 11.9508 19.4508C11.5992 19.8025 11.1223 20 10.625 20C10.1277 20 9.65081 19.8025 9.29917 19.4508C8.94754 19.0992 8.75 18.6223 8.75 18.125C8.75 17.6277 8.94754 17.1508 9.29917 16.7992C9.65081 16.4475 10.1277 16.25 10.625 16.25ZM22.5 18.125C22.5 17.6277 22.6975 17.1508 23.0492 16.7992C23.4008 16.4475 23.8777 16.25 24.375 16.25C24.8723 16.25 25.3492 16.4475 25.7008 16.7992C26.0525 17.1508 26.25 17.6277 26.25 18.125C26.25 18.6223 26.0525 19.0992 25.7008 19.4508C25.3492 19.8025 24.8723 20 24.375 20C23.8777 20 23.4008 19.8025 23.0492 19.4508C22.6975 19.0992 22.5 18.6223 22.5 18.125Z" fill="white"/>
</svg>
